<svg xmlns="http://www.w3.org/2000/svg" xmlns:xlink="http://www.w3.org/1999/xlink" width="1200" zoomAndPan="magnify" viewBox="0 0 900 899.99999" height="1200" preserveAspectRatio="xMidYMid meet" version="1.0"><defs><g/><clipPath id="7761f45bf4"><path d="M 900 75 L 900 825 C 900 844.890625 892.097656 863.96875 878.03125 878.03125 C 863.96875 892.097656 844.890625 900 825 900 L 75 900 C 33.578125 900 0 866.421875 0 825 L 0 75 C 0 33.578125 33.578125 0 75 0 L 825 0 C 844.890625 0 863.96875 7.902344 878.03125 21.96875 C 892.097656 36.03125 900 55.109375 900 75 Z M 900 75 " clip-rule="nonzero"/></clipPath><clipPath id="f1ecc29710"><path d="M 0 0 L 900 0 L 900 900 L 0 900 Z M 0 0 " clip-rule="nonzero"/></clipPath><clipPath id="36c3d139cc"><path d="M 900 75 L 900 825 C 900 844.890625 892.097656 863.96875 878.03125 878.03125 C 863.96875 892.097656 844.890625 900 825 900 L 75 900 C 33.578125 900 0 866.421875 0 825 L 0 75 C 0 33.578125 33.578125 0 75 0 L 825 0 C 844.890625 0 863.96875 7.902344 878.03125 21.96875 C 892.097656 36.03125 900 55.109375 900 75 Z M 900 75 " clip-rule="nonzero"/></clipPath><clipPath id="d0655fbd48"><rect x="0" width="900" y="0" height="900"/></clipPath></defs><rect x="-90" width="1080" fill="#ffffff" y="-89.999999" height="1079.999988" fill-opacity="1"/><rect x="-90" width="1080" fill="#ffffff" y="-89.999999" height="1079.999988" fill-opacity="1"/><g clip-path="url(#7761f45bf4)"><g transform="matrix(1, 0, 0, 1, 0, 0.000000000000108392)"><g clip-path="url(#d0655fbd48)"><g clip-path="url(#f1ecc29710)"><g clip-path="url(#36c3d139cc)"><rect x="-198" width="1296" fill="#29706b" height="1295.999986" y="-197.999998" fill-opacity="1"/></g></g></g></g></g><g fill="#ffffff" fill-opacity="1"><g transform="translate(110.634308, 644.026395)"><g><path d="M 42.125 0 L 42.125 -378.046875 L 141.078125 -378.046875 L 141.078125 -312.640625 L 144.515625 -312.640625 C 151.359375 -335.703125 162.769531 -353.109375 178.75 -364.859375 C 194.726562 -376.617188 213.675781 -382.5 235.59375 -382.5 C 241.070312 -382.5 246.78125 -382.269531 252.71875 -381.8125 C 258.65625 -381.363281 263.789062 -380.679688 268.125 -379.765625 L 268.125 -289.359375 C 263.789062 -290.734375 257.34375 -291.816406 248.78125 -292.609375 C 240.21875 -293.410156 231.941406 -293.8125 223.953125 -293.8125 C 208.890625 -293.8125 195.25 -290.5 183.03125 -283.875 C 170.820312 -277.257812 161.289062 -267.898438 154.4375 -255.796875 C 147.59375 -243.703125 144.171875 -229.4375 144.171875 -213 L 144.171875 0 Z M 42.125 0 "/></g></g></g><g fill="#ffffff" fill-opacity="1"><g transform="translate(377.052774, 644.026395)"><g><path d="M 213.34375 7.53125 C 174.757812 7.53125 141.484375 -0.457031 113.515625 -16.4375 C 85.546875 -32.414062 63.972656 -55.015625 48.796875 -84.234375 C 33.617188 -113.460938 26.03125 -147.820312 26.03125 -187.3125 C 26.03125 -226.351562 33.5625 -260.539062 48.625 -289.875 C 63.695312 -319.207031 84.925781 -342.148438 112.3125 -358.703125 C 139.707031 -375.253906 171.785156 -383.53125 208.546875 -383.53125 C 233.890625 -383.53125 257.40625 -379.421875 279.09375 -371.203125 C 300.78125 -362.984375 319.785156 -350.828125 336.109375 -334.734375 C 352.429688 -318.640625 365.097656 -298.550781 374.109375 -274.46875 C 383.128906 -250.382812 387.640625 -222.585938 387.640625 -191.078125 L 387.640625 -162.65625 L 66.78125 -162.65625 L 66.78125 -227.03125 L 337.984375 -227.03125 L 290.390625 -210.25 C 290.390625 -229.882812 287.304688 -246.894531 281.140625 -261.28125 C 274.972656 -275.664062 265.894531 -286.796875 253.90625 -294.671875 C 241.925781 -302.546875 227.148438 -306.484375 209.578125 -306.484375 C 191.992188 -306.484375 177.035156 -302.488281 164.703125 -294.5 C 152.378906 -286.507812 142.960938 -275.550781 136.453125 -261.625 C 129.953125 -247.695312 126.703125 -231.71875 126.703125 -213.6875 L 126.703125 -168.484375 C 126.703125 -147.242188 130.351562 -129.203125 137.65625 -114.359375 C 144.96875 -99.523438 155.300781 -88.285156 168.65625 -80.640625 C 182.007812 -72.992188 197.585938 -69.171875 215.390625 -69.171875 C 227.492188 -69.171875 238.507812 -70.9375 248.4375 -74.46875 C 258.363281 -78.007812 266.804688 -83.144531 273.765625 -89.875 C 280.734375 -96.613281 286.046875 -104.894531 289.703125 -114.71875 L 382.5 -101.359375 C 376.5625 -79.441406 365.890625 -60.320312 350.484375 -44 C 335.078125 -27.675781 315.785156 -15.003906 292.609375 -5.984375 C 269.441406 3.023438 243.019531 7.53125 213.34375 7.53125 Z M 213.34375 7.53125 "/></g></g></g></svg>